<svg xmlns="http://www.w3.org/2000/svg" width="38.649" height="28.368" viewBox="0 0 38.649 28.368">
  <g id="check" transform="translate(1.199 -69.374)">
    <path id="Path_10482" data-name="Path 10482" d="M11.7,96.742A3.873,3.873,0,0,1,8.962,95.6L.669,87.315a2.286,2.286,0,0,1,0-3.232h0a2.286,2.286,0,0,1,3.232,0l7.8,7.8L32.349,71.242a2.286,2.286,0,0,1,3.232,0h0a2.286,2.286,0,0,1,0,3.232L14.448,95.6A3.873,3.873,0,0,1,11.7,96.742Z" transform="translate(0 0)" stroke="#000" stroke-width="2"/>
  </g>
</svg>
