<svg id="comment-alt" xmlns="http://www.w3.org/2000/svg" width="44" height="43.999" viewBox="0 0 44 43.999">
  <path id="Path_10562" data-name="Path 10562" d="M36.667,0H7.333A7.333,7.333,0,0,0,0,7.333v22a7.333,7.333,0,0,0,7.333,7.333H12.65l8.16,6.9a1.833,1.833,0,0,0,2.369,0l8.171-6.9h5.317A7.333,7.333,0,0,0,44,29.333v-22A7.333,7.333,0,0,0,36.667,0Zm3.667,29.333A3.667,3.667,0,0,1,36.667,33H31.35a3.667,3.667,0,0,0-2.367.867L22,39.765l-6.979-5.9h0A3.667,3.667,0,0,0,12.65,33H7.333a3.667,3.667,0,0,1-3.667-3.667v-22A3.667,3.667,0,0,1,7.333,3.667H36.667a3.667,3.667,0,0,1,3.667,3.667Z" fill="#fff"/>
  <path id="Path_10563" data-name="Path 10563" d="M7.833,8.667H17A1.833,1.833,0,1,0,17,5H7.833a1.833,1.833,0,1,0,0,3.667Z" transform="translate(5 4.167)" fill="#fff"/>
  <path id="Path_10564" data-name="Path 10564" d="M26.167,9H7.833a1.833,1.833,0,0,0,0,3.667H26.167a1.833,1.833,0,0,0,0-3.667Z" transform="translate(5 7.5)" fill="#fff"/>
  <path id="Path_10565" data-name="Path 10565" d="M26.167,13H7.833a1.833,1.833,0,1,0,0,3.667H26.167a1.833,1.833,0,0,0,0-3.667Z" transform="translate(5 10.833)" fill="#fff"/>
</svg>
