<svg xmlns="http://www.w3.org/2000/svg" width="37.667" height="45.2" viewBox="0 0 37.667 45.2">
  <path id="document" d="M30.25,26.367a1.883,1.883,0,0,1-1.883,1.883H13.3a1.883,1.883,0,0,1,0-3.767H28.367A1.883,1.883,0,0,1,30.25,26.367Zm-7.533,5.65H13.3a1.883,1.883,0,0,0,0,3.767h9.417a1.883,1.883,0,0,0,0-3.767Zm16.95-12.27V35.784A9.428,9.428,0,0,1,30.25,45.2H11.417A9.428,9.428,0,0,1,2,35.784V9.417A9.428,9.428,0,0,1,11.417,0h8.5a13.1,13.1,0,0,1,9.323,3.861L35.8,10.426A13.091,13.091,0,0,1,39.667,19.747ZM26.58,6.524A9.436,9.436,0,0,0,24.6,5.055v8.129a1.883,1.883,0,0,0,1.883,1.883h8.129a9.385,9.385,0,0,0-1.471-1.978ZM35.9,19.747c0-.311-.06-.608-.089-.913H26.484a5.65,5.65,0,0,1-5.65-5.65V3.855c-.305-.028-.6-.089-.913-.089h-8.5a5.65,5.65,0,0,0-5.65,5.65V35.784a5.65,5.65,0,0,0,5.65,5.65H30.25a5.65,5.65,0,0,0,5.65-5.65Z" transform="translate(-2 0)"/>
</svg>
