<svg xmlns="http://www.w3.org/2000/svg" width="21.167" height="31.825" viewBox="0 0 21.167 31.825">
  <g id="svgexport-6_1_" data-name="svgexport-6 (1)" transform="translate(0.05 0.05)">
    <g id="Group_16222" data-name="Group 16222" transform="translate(9.97 2.479)">
      <g id="Group_16221" data-name="Group 16221" transform="translate(0)">
        <path id="Path_5412" data-name="Path 5412" d="M247.524,40a.62.62,0,1,0,.615.625A.62.62,0,0,0,247.524,40Z" transform="translate(-246.9 -40.005)" fill="#da4a2d" stroke="#da4a2d" stroke-width="0.1"/>
      </g>
    </g>
    <g id="Group_16224" data-name="Group 16224" transform="translate(6.196 6.196)">
      <g id="Group_16223" data-name="Group 16223" transform="translate(0)">
        <path id="Path_5413" data-name="Path 5413" d="M190.369,100a4.337,4.337,0,1,0-.065,8.675h.033a4.337,4.337,0,0,0,.032-8.675Zm-.032,7.436h-.024a3.1,3.1,0,0,1,.023-6.2h.024a3.1,3.1,0,0,1-.023,6.2Z" transform="translate(-185.999 -100.002)" fill="#da4a2d" stroke="#da4a2d" stroke-width="0.1"/>
      </g>
    </g>
    <g id="Group_16226" data-name="Group 16226" transform="translate(12.41 2.913)">
      <g id="Group_16225" data-name="Group 16225" transform="translate(0)">
        <path id="Path_5414" data-name="Path 5414" d="M287.114,47.047a.62.62,0,1,0-.414,1.168,6.808,6.808,0,0,1,4.526,6.468.62.62,0,0,0,.615.624h0a.62.62,0,0,0,.619-.615A8.048,8.048,0,0,0,287.114,47.047Z" transform="translate(-286.287 -47.011)" fill="#da4a2d" stroke="#da4a2d" stroke-width="0.1"/>
      </g>
    </g>
    <g id="Group_16228" data-name="Group 16228" transform="translate(0)">
      <g id="Group_16227" data-name="Group 16227">
        <path id="Path_5415" data-name="Path 5415" d="M100.332,23.325c4.121-5.3,6.7-8.071,6.732-12.712A10.534,10.534,0,1,0,86,10.455c-.035,4.767,2.588,7.53,6.738,12.87C88.606,23.941,86,25.491,86,27.387c0,1.27,1.174,2.41,3.306,3.209a23.715,23.715,0,0,0,14.456,0c2.132-.8,3.306-1.939,3.306-3.209C107.064,25.492,104.457,23.943,100.332,23.325Zm-13.1-12.861a9.295,9.295,0,1,1,18.589.139c-.033,4.408-2.764,7.124-7.125,12.808-.778,1.013-1.492,1.972-2.168,2.909-.674-.938-1.374-1.879-2.164-2.909C89.826,17.489,87.2,14.978,87.236,10.464ZM96.53,30.485c-5.32,0-9.294-1.636-9.294-3.1,0-1.085,2.376-2.455,6.371-2.929.883,1.159,1.657,2.211,2.417,3.287a.62.62,0,0,0,.506.262h0a.62.62,0,0,0,.505-.261c.752-1.061,1.548-2.14,2.423-3.287,3.991.475,6.366,1.845,6.366,2.929C105.824,28.85,101.85,30.485,96.53,30.485Z" transform="translate(-85.996)" fill="#da4a2d" stroke="#da4a2d" stroke-width="0.1"/>
      </g>
    </g>
  </g>
</svg>
