<svg xmlns="http://www.w3.org/2000/svg" width="40.733" height="40.733" viewBox="0 0 40.733 40.733">
  <path id="map-marker" d="M20.366,20.366a6.789,6.789,0,1,0-6.789-6.789A6.789,6.789,0,0,0,20.366,20.366Zm0-10.183a3.394,3.394,0,1,1-3.394,3.394A3.394,3.394,0,0,1,20.366,10.183Zm14.7,5.358-1.22-.406a13.565,13.565,0,1,0-26.909.3A8.562,8.562,0,0,0,2.61,17.637,8.394,8.394,0,0,0,0,23.761v6.916a8.508,8.508,0,0,0,6.11,8.147l4.871,1.527a8.454,8.454,0,0,0,2.527.382,8.615,8.615,0,0,0,2.3-.316l9.81-2.9a5.07,5.07,0,0,1,2.67,0l4.051,1.358a6.789,6.789,0,0,0,8.394-6.59V23.543a8.511,8.511,0,0,0-5.669-8Zm-21.9-9.156A10.2,10.2,0,0,1,27.585,20.811l-6.03,5.864a1.684,1.684,0,0,1-2.357,0l-6.03-5.838a10.251,10.251,0,0,1,0-14.452Zm24.171,25.9a3.379,3.379,0,0,1-1.3,2.668,3.342,3.342,0,0,1-2.76.67L29.3,34.283a8.525,8.525,0,0,0-4.611-.027l-9.817,2.9A5.092,5.092,0,0,1,12,37.106L7.088,35.578a5.114,5.114,0,0,1-3.693-4.9V23.761A5.03,5.03,0,0,1,4.956,20.09a5.132,5.132,0,0,1,2.833-1.368,13.613,13.613,0,0,0,3,4.53l6.054,5.86a5.063,5.063,0,0,0,7.084,0l6.047-5.877a13.513,13.513,0,0,0,3.077-4.788l.911.3a5.1,5.1,0,0,1,3.381,4.795Z" transform="translate(0)"/>
</svg>
