<svg xmlns="http://www.w3.org/2000/svg" width="47.011" height="47" viewBox="0 0 47.011 47">
  <path id="megaphone" d="M33.292,0a1.958,1.958,0,0,0-1.958,1.958c0,5.775-5.058,7.833-9.792,7.833H7.833A7.833,7.833,0,0,0,0,17.625v3.917A7.792,7.792,0,0,0,2.965,27.63l7,15.612A6.331,6.331,0,0,0,15.743,47a5.84,5.84,0,0,0,5.327-8.225l-4.308-9.4h4.78c4.733,0,9.792,2.058,9.792,7.833a1.958,1.958,0,0,0,3.917,0V1.958A1.958,1.958,0,0,0,33.292,0ZM17.5,40.379a1.925,1.925,0,0,1-1.759,2.7,2.413,2.413,0,0,1-2.205-1.437l-5.5-12.271h4.414ZM31.333,28.592a15.124,15.124,0,0,0-9.792-3.133H7.833a3.917,3.917,0,0,1-3.917-3.917V17.625a3.917,3.917,0,0,1,3.917-3.917H21.542a15.124,15.124,0,0,0,9.792-3.124ZM46.8,30.26a1.958,1.958,0,0,1-2.628.877l-3.917-1.958a1.959,1.959,0,1,1,1.751-3.505l3.917,1.958A1.958,1.958,0,0,1,46.8,30.25ZM39.382,12.635a1.958,1.958,0,0,1,.877-2.628l3.917-1.958a1.959,1.959,0,0,1,1.751,3.505L42.01,13.512A1.958,1.958,0,0,1,39.382,12.635Zm-.215,6.948a1.958,1.958,0,0,1,1.958-1.958h3.917a1.958,1.958,0,0,1,0,3.917H41.125A1.958,1.958,0,0,1,39.167,19.583Z"/>
</svg>
