<svg id="picture" xmlns="http://www.w3.org/2000/svg" width="42.5" height="42.5" viewBox="0 0 42.5 42.5">
  <path id="Path_10480" data-name="Path 10480" d="M33.646,0H8.854A8.865,8.865,0,0,0,0,8.854V33.646A8.865,8.865,0,0,0,8.854,42.5H33.646A8.865,8.865,0,0,0,42.5,33.646V8.854A8.865,8.865,0,0,0,33.646,0ZM8.854,3.542H33.646a5.312,5.312,0,0,1,5.313,5.313V33.646a5.226,5.226,0,0,1-.531,2.276L22.2,19.7a8.854,8.854,0,0,0-12.523,0L3.542,25.829V8.854A5.313,5.313,0,0,1,8.854,3.542Zm0,35.417a5.312,5.312,0,0,1-5.313-5.312V30.837L12.18,22.2a5.313,5.313,0,0,1,7.515,0L35.921,38.427a5.226,5.226,0,0,1-2.276.531Z"/>
  <path id="Path_10481" data-name="Path 10481" d="M18.7,15.9a6.2,6.2,0,1,0-6.2-6.2A6.2,6.2,0,0,0,18.7,15.9Zm0-8.854A2.656,2.656,0,1,1,16.042,9.7,2.656,2.656,0,0,1,18.7,7.042Z" transform="translate(9.635 2.698)"/>
</svg>
